<svg id="Layer_1" data-name="Layer 1" xmlns="http://www.w3.org/2000/svg" width="293.83" height="85.88" viewBox="0 0 293.83 85.88">
  <defs>
    <style>
      .cls-1 {
        fill: #f9aa7b;
      }

      .cls-2 {
        fill: #4e9fa5;
      }

      .cls-3 {
        fill: #ffe8af;
      }

      .cls-4 {
        fill: #add5d7;
      }

      .cls-5 {
        fill: #ffce34;
      }

      .cls-6 {
        fill: #f16623;
      }

      .cls-7 {
        fill: #676766;
      }

      .cls-8 {
        fill: #a5a8aa;
      }
    </style>
  </defs>
  <title>datarole-wordmark-medium</title>
  <path class="cls-1" d="M50.57,85.81a2,2,0,0,0,1.92-1.92q0-5.51,0-11a1.83,1.83,0,0,0-.08-.52q0-4.46,0-8.91a1.83,1.83,0,0,0,.08-.52q0-1.58,0-3.16a2,2,0,0,0-1.92-1.92h-8a2,2,0,0,0-1.92,1.92q0,12.06,0,24.12a2,2,0,0,0,1.92,1.92Z"/>
  <path class="cls-2" d="M6,51.9l26.67,0A2,2,0,0,0,34.56,50q0-10.82,0-21.64a1.77,1.77,0,0,0-.51-1.3L34,27l0,0a1.77,1.77,0,0,0-1.3-.52l-19.3,0c-3.34,0-4.1,0-5.62,2.66L.25,42a1.93,1.93,0,0,0,0,1.9l4,7.05A1.94,1.94,0,0,0,6,51.9Z"/>
  <path class="cls-3" d="M60.54,71a2,2,0,0,0-1.92,1.92q0,5.52,0,11a1.77,1.77,0,0,0,.52,1.31l0,0,.07.07a1.78,1.78,0,0,0,1.3.51l12,0a1.94,1.94,0,0,0,1.67-1l6.44-11.08A1.94,1.94,0,0,0,79,71Z"/>
  <path class="cls-4" d="M14.5,17.45a1.94,1.94,0,0,0,1.67,2.87l16.51,0a2,2,0,0,0,1.92-1.92q0-8.12,0-16.24A1.77,1.77,0,0,0,34.11.87l0,0L34,.77a1.78,1.78,0,0,0-1.3-.51c-2.16,0-5-.57-7.1,0-1.81.48-2.32,2.08-3.22,3.64Z"/>
  <path class="cls-4" d="M34.54,59.79a1.78,1.78,0,0,0-.49-1.28,1.74,1.74,0,0,0-1.43-.65l-21,.1A1.94,1.94,0,0,0,10,60.84L23.71,84.77a1.94,1.94,0,0,0,1.67,1l7.21,0a2,2,0,0,0,1.92-1.92Q34.52,71.82,34.54,59.79Z"/>
  <path class="cls-5" d="M58.68,28.41q0,17.25,0,34.51a2,2,0,0,0,1.92,1.92H84.74A1.79,1.79,0,0,0,86,64.39a2,2,0,0,0,.43-.51L91.58,55c1.95-3.35,4.7-6.88,6.11-10.51,1-2.49-1.32-4.9-2.56-7.06l-5.69-9.92a1.94,1.94,0,0,0-1.67-1l-27.16,0A2,2,0,0,0,58.68,28.41Z"/>
  <path class="cls-3" d="M58.7,18.46a1.77,1.77,0,0,0,.51,1.3l.05.06,0,0a1.77,1.77,0,0,0,1.3.52l21.43,0a1.94,1.94,0,0,0,1.67-2.87L74.43,1.35a1.94,1.94,0,0,0-1.67-1L60.64.34a2,2,0,0,0-1.92,1.92Q58.71,10.36,58.7,18.46Z"/>
  <path class="cls-6" d="M51.92,51.45,52,51.4l0-.05a1.77,1.77,0,0,0,.52-1.3q0-10.82,0-21.64a2,2,0,0,0-1.92-1.92h-8a2,2,0,0,0-1.92,1.92q0,10.82,0,21.64A2,2,0,0,0,42.59,52h8A1.77,1.77,0,0,0,51.92,51.45Z"/>
  <path class="cls-1" d="M40.72,18.43a2,2,0,0,0,1.92,1.92h8a1.77,1.77,0,0,0,1.3-.51L52,19.8l0,0a1.77,1.77,0,0,0,.52-1.3q0-8.11,0-16.21A2,2,0,0,0,50.69.31l-8,0A2,2,0,0,0,40.74,2.2Q40.73,10.32,40.72,18.43Z"/>
  <g>
    <path class="cls-7" d="M121.51,34.17h7.11c3.3,0,7.17,0,9.89,3.2a14.12,14.12,0,0,1,3,9.28c0,5.3-2.21,8.57-4.08,10.06-2.41,2-5.44,2-9,2h-6.9Zm3.4,21.76h3.33c2.35,0,4.79-.14,6.43-1.36,3.13-2.35,3.23-6.36,3.23-7.79,0-.92-.07-5.1-2.38-7.65C133.95,37.4,132,37,129,37h-4.08Z"/>
    <path class="cls-7" d="M153,34.17h3.64l9.93,24.55h-3.71l-2.65-6.39H148.85l-2.65,6.39h-3.5Zm-3.09,15.4h9.28l-4.52-12Z"/>
    <path class="cls-7" d="M173.33,58.71V37.06H165.1V34.17h19.82v2.89h-8.23V58.71Z"/>
    <path class="cls-7" d="M193.25,34.17h3.64l9.93,24.55h-3.71l-2.65-6.39H189.07l-2.65,6.39h-3.5Zm-3.09,15.4h9.28l-4.52-12Z"/>
    <path class="cls-8" d="M209.2,34.14h9.42c2.72,0,5.47,0,7.44,1.67a6.22,6.22,0,0,1,2.14,4.73c0,4.59-3.94,5.68-5.13,6,3.71.34,4,2.45,4.42,5.64.37,2.89.58,4.08.75,4.76a4.42,4.42,0,0,0,.75,1.77h-5.81c-.24-1.36-1-7.58-1.33-8.53-.48-1.39-1.77-1.39-2.65-1.39h-4.62v9.93H209.2Zm5.2,10.74h4.25a4.32,4.32,0,0,0,2.69-.68,3.4,3.4,0,0,0,1.36-2.86,3.07,3.07,0,0,0-1.29-2.75c-.82-.58-1.8-.58-3.47-.58H214.4Z"/>
    <path class="cls-8" d="M242.73,33.63c2.62,0,6.22.61,8.64,3.33a14.13,14.13,0,0,1,3.13,9.25c0,3.57-1.09,7.38-3.09,9.62-2.72,3.06-6.7,3.5-8.74,3.5A11.89,11.89,0,0,1,234,56c-2.69-2.86-3-6.94-3-9.18C230.93,40.25,233.89,33.63,242.73,33.63Zm-4.45,19.85a5.05,5.05,0,0,0,4.45,2,5,5,0,0,0,4.59-2.28c.82-1.22,1.67-3.13,1.67-7a14.16,14.16,0,0,0-.61-4.39c-1-3-3.09-4.35-5.61-4.35a5.58,5.58,0,0,0-4.52,2.07c-1.39,1.7-1.8,4.35-1.8,7.14C236.44,49,236.82,51.58,238.28,53.48Z"/>
    <path class="cls-8" d="M258.3,34.17h5.37V54.53h10.54l-2,4.18H258.3Z"/>
    <path class="cls-8" d="M277.38,34.14h16.45l-2,4h-9.19V44h8.47l-2,4h-6.47v6.63h9.56l-2,4.08H277.38Z"/>
  </g>
</svg>
